<?xml version="1.0" standalone="no"?>
<!DOCTYPE svg PUBLIC "-//W3C//DTD SVG 20010904//EN"
 "http://www.w3.org/TR/2001/REC-SVG-20010904/DTD/svg10.dtd">
<svg version="1.0" xmlns="http://www.w3.org/2000/svg"
 width="320.000000pt" height="318.000000pt" viewBox="0 0 320.000000 318.000000"
 preserveAspectRatio="xMidYMid meet">
<metadata>
Created by potrace 1.15, written by Peter Selinger 2001-2017
</metadata>
<g transform="translate(0.000000,318.000000) scale(0.100000,-0.100000)"
fill="#000000" stroke="none">
<path d="M1515 2883 c-71 -9 -135 -25 -135 -34 0 -5 -12 -14 -26 -19 -14 -6
-23 -13 -20 -18 2 -4 -28 -20 -67 -36 -289 -114 -405 -178 -480 -263 -16 -18
-35 -33 -42 -33 -7 0 -29 -20 -49 -45 -43 -52 -40 -61 4 -12 52 56 32 13 -22
-50 -29 -34 -62 -79 -72 -100 -11 -21 -29 -54 -40 -73 -11 -19 -21 -39 -22
-45 -1 -5 -12 -28 -25 -50 -13 -21 -24 -44 -26 -50 -1 -5 -5 -23 -8 -40 -3
-16 -11 -34 -17 -40 -8 -7 -9 -3 -4 15 4 14 11 48 16 77 11 62 35 109 118 230
23 35 36 60 28 57 -9 -3 -18 -14 -21 -25 -4 -10 -10 -19 -15 -19 -5 0 -28 -31
-51 -70 -22 -38 -45 -67 -50 -65 -4 3 -13 -5 -19 -17 -11 -22 -10 -22 4 -4 24
30 19 3 -9 -45 -14 -24 -25 -40 -25 -34 0 14 -26 -26 -38 -60 -10 -28 -10 -29
-11 -5 0 14 6 36 14 50 8 14 14 36 14 50 -1 22 -3 20 -20 -15 -10 -22 -19 -33
-19 -25 -1 26 -18 -12 -55 -121 -19 -56 -37 -104 -40 -107 -23 -23 46 219 96
335 22 51 15 54 -24 11 -27 -30 -29 -27 -11 17 3 8 2 15 -3 15 -5 0 -15 -16
-22 -37 -12 -31 -15 -34 -23 -18 -8 13 -4 30 12 65 12 26 20 54 17 61 -2 8
-21 -20 -41 -61 -39 -79 -42 -71 -7 18 12 28 17 52 13 52 -10 0 -102 -233
-102 -258 0 -11 -7 -32 -15 -49 -18 -35 -60 -182 -70 -239 -3 -23 -6 -115 -6
-205 -1 -168 6 -214 51 -359 25 -82 25 -93 0 -52 -29 46 -57 175 -70 312 -6
63 -13 117 -17 120 -3 3 -3 -60 -1 -140 4 -111 9 -153 22 -178 10 -19 15 -40
12 -47 -14 -37 89 -280 172 -406 66 -101 223 -268 331 -355 27 -21 56 -51 65
-65 9 -15 51 -50 93 -79 43 -29 79 -57 81 -61 2 -5 8 -9 14 -9 5 0 29 -14 54
-31 68 -47 123 -62 210 -57 41 2 78 8 82 14 4 5 31 10 59 10 40 1 62 7 91 28
44 30 117 136 127 183 6 33 -3 108 -13 98 -3 -3 -18 16 -33 42 -53 91 -126
149 -196 156 -23 2 -48 8 -55 14 -7 5 -22 13 -32 17 -16 5 -17 4 -6 -9 15 -18
14 -18 -53 -1 -52 14 -63 18 -114 45 -29 14 -29 5 0 -20 30 -25 10 -24 -28 1
-44 31 -114 62 -124 56 -14 -9 -34 22 -27 40 5 14 4 15 -9 4 -13 -11 -20 -9
-45 15 -16 15 -45 59 -65 96 -34 65 -52 90 -38 51 6 -15 5 -15 -10 -4 -9 8
-19 24 -23 35 -3 12 -14 30 -23 41 -9 10 -15 19 -13 20 2 0 -1 12 -6 26 -5 14
-12 39 -16 55 l-6 30 17 -30 c30 -51 96 -149 117 -172 39 -45 35 -22 -5 29
-24 31 -36 54 -29 56 8 3 6 10 -5 22 -9 10 -12 21 -7 24 9 5 47 -42 79 -97 17
-30 84 -87 102 -87 9 0 36 -9 61 -20 l45 -20 -30 25 c-16 14 -49 41 -72 60
-22 19 -56 54 -75 77 -32 42 -32 43 -5 25 15 -9 27 -15 27 -11 0 4 7 1 15 -6
20 -16 20 4 0 24 -8 8 -15 18 -15 21 0 4 -14 23 -31 43 -18 20 -50 73 -71 118
-37 76 -48 123 -64 254 l-4 35 14 -35 c8 -19 15 -46 16 -60 0 -14 7 -38 15
-55 l15 -30 -5 30 c-3 17 -9 55 -15 85 -5 30 -11 97 -14 149 -2 52 -9 97 -14
100 -12 7 -19 71 -10 86 3 6 9 29 13 53 4 24 13 46 21 49 11 4 12 9 3 19 -9
11 -6 19 12 38 13 14 31 44 40 68 9 26 21 42 30 41 15 -2 89 108 89 132 0 8 5
15 10 15 6 0 10 7 10 15 0 8 5 15 10 15 6 0 10 7 10 15 0 8 6 15 14 15 7 0 16
9 19 20 3 11 17 24 31 30 14 5 26 16 26 23 0 7 11 24 25 37 14 13 25 27 25 32
0 16 -30 8 -42 -12 -7 -11 -17 -20 -21 -20 -5 0 5 17 22 37 17 21 31 44 31 53
-1 12 -2 12 -11 -2 -5 -9 -15 -15 -23 -12 -16 6 -155 -135 -176 -179 -26 -53
-93 -138 -101 -126 -3 6 -20 -13 -38 -43 -18 -29 -29 -43 -26 -30 11 37 58
103 66 91 8 -13 51 44 53 70 1 17 22 42 148 176 31 33 72 78 91 100 19 22 66
57 104 76 37 20 93 50 123 67 62 34 178 77 187 68 3 -3 -6 -8 -20 -11 -15 -4
-32 -13 -38 -21 -10 -12 -9 -13 6 -8 14 6 16 4 10 -6 -6 -10 -4 -12 11 -6 10
5 28 10 39 13 19 4 19 4 1 -11 -10 -8 -43 -21 -73 -27 -30 -7 -57 -19 -60 -26
-3 -7 -13 -13 -22 -13 -9 -1 -32 -14 -51 -30 -39 -34 -33 -40 10 -10 15 11 36
21 46 23 11 2 26 7 34 10 67 28 87 28 58 -1 -6 -6 -10 -14 -7 -16 12 -12 59
-13 75 -2 30 20 204 56 204 42 0 -2 -32 -11 -70 -20 -71 -18 -125 -39 -190
-77 -102 -60 -158 -88 -164 -82 -3 3 -6 1 -6 -5 0 -7 -9 -12 -20 -12 -53 0
-211 -132 -297 -247 -84 -114 -134 -225 -147 -328 -2 -22 -9 -41 -15 -43 -13
-4 -15 -22 -2 -22 10 0 27 39 37 85 4 17 15 42 25 57 11 14 19 35 19 46 0 11
6 24 13 30 7 6 14 23 15 37 2 30 61 127 72 120 4 -3 16 7 25 22 18 27 39 48
119 119 25 23 46 47 46 53 0 7 6 11 13 10 23 -3 33 1 53 19 17 16 187 99 276
135 221 91 589 55 765 -75 29 -21 58 -38 66 -38 15 0 77 -57 77 -71 0 -5 6 -9
13 -9 8 0 31 -25 53 -55 21 -30 49 -67 61 -82 13 -16 23 -34 23 -42 0 -8 6
-22 13 -30 17 -20 82 -188 103 -267 20 -75 44 -260 44 -342 0 -46 -4 -64 -15
-68 -8 -4 -15 -14 -15 -23 0 -14 2 -14 10 -1 13 20 13 -41 1 -90 -5 -19 -14
-62 -21 -95 -7 -33 -26 -88 -41 -121 -16 -34 -29 -66 -29 -72 0 -6 -3 -12 -7
-14 -5 -1 -17 -21 -28 -43 -47 -94 -142 -209 -292 -348 -12 -11 -21 -23 -20
-27 3 -11 -104 -94 -181 -139 -73 -44 -110 -76 -54 -47 37 19 46 20 36 4 -8
-13 13 0 51 33 11 10 46 27 79 39 46 18 73 38 132 98 40 42 76 73 80 69 11
-10 -143 -148 -228 -204 -45 -29 -84 -53 -87 -53 -10 0 -54 -50 -44 -50 5 0
19 7 31 16 12 8 22 12 22 9 0 -3 20 8 44 25 25 16 51 30 59 30 8 0 20 7 27 15
7 8 38 29 69 47 66 37 143 100 224 183 33 33 54 51 49 40 -20 -39 -165 -167
-267 -235 -27 -18 -54 -38 -60 -45 -15 -17 -140 -95 -154 -95 -6 0 -11 -5 -11
-10 0 -11 28 -7 105 17 66 21 121 50 170 88 53 42 66 49 59 33 -8 -21 -242
-178 -264 -178 -5 0 -28 -18 -50 -40 -22 -22 -59 -48 -82 -57 -23 -9 -37 -18
-30 -21 6 -2 32 6 58 17 26 12 52 21 58 21 6 0 33 12 60 26 26 14 51 23 54 20
3 -4 -9 -12 -26 -18 -18 -7 -32 -15 -32 -19 0 -13 75 15 114 43 22 15 44 28
48 28 5 0 26 11 48 25 22 14 40 21 40 15 0 -10 -72 -58 -167 -110 -89 -49 -70
-49 23 -1 101 53 219 128 263 169 19 17 37 29 40 26 3 -3 -2 -11 -12 -18 -9
-7 -17 -16 -17 -20 0 -13 45 17 69 45 13 16 28 29 32 29 8 0 20 11 103 89 22
21 34 28 28 16 -11 -20 -117 -126 -207 -204 -27 -24 -36 -35 -20 -24 51 34 61
36 29 6 -74 -68 -201 -153 -226 -153 -10 0 -18 -4 -18 -9 0 -5 -36 -29 -81
-53 -109 -58 -80 -62 36 -4 51 25 100 46 109 46 9 0 16 4 16 9 0 5 12 16 26
26 15 9 23 12 20 6 -9 -15 7 -14 22 1 6 6 14 9 17 6 12 -12 -205 -125 -265
-139 -56 -12 -193 -63 -182 -67 16 -5 176 36 210 54 15 7 32 14 39 14 6 0 40
13 75 30 34 16 71 30 81 30 10 0 20 7 23 15 3 8 21 19 40 25 19 6 34 17 34 25
0 7 19 22 42 34 53 25 72 41 81 64 3 9 14 17 24 17 10 0 45 26 78 57 33 31 54
53 48 49 -27 -15 -11 12 33 54 78 77 214 286 200 309 -4 5 4 20 16 33 13 13
30 43 39 68 9 25 24 62 33 83 9 22 12 36 7 32 -6 -3 -11 -4 -11 -1 0 11 41
182 47 196 39 94 40 355 2 583 -50 293 -181 574 -360 765 -32 35 -59 67 -59
70 0 7 -31 22 -73 36 -9 3 -22 16 -27 28 -5 13 -9 17 -9 10 -1 -8 -6 -10 -13
-6 -7 4 -3 -4 10 -18 l22 -25 -29 2 c-16 1 -37 9 -46 18 -9 10 -23 17 -30 17
-22 0 -86 41 -79 51 3 5 -1 6 -9 3 -8 -3 -40 9 -71 25 -31 17 -59 31 -63 31
-9 0 78 -67 107 -82 44 -23 110 -69 110 -77 0 -5 15 -19 34 -32 19 -13 33 -26
31 -30 -2 -3 12 -21 31 -40 33 -31 75 -88 85 -114 2 -5 9 -17 17 -26 7 -8 24
-35 38 -60 14 -24 17 -33 7 -19 -33 47 -208 217 -263 257 -115 83 -266 166
-370 203 -19 6 -44 16 -55 20 -33 13 -205 50 -280 60 -69 9 -161 11 -220 3z
m362 -89 c37 -8 104 -31 147 -50 44 -19 85 -33 91 -30 32 12 250 -131 283
-185 14 -21 13 -21 -20 2 -18 13 -34 27 -36 31 -2 4 -9 8 -16 8 -7 0 -30 13
-52 30 -21 16 -43 30 -48 30 -5 0 -32 15 -60 34 -55 36 -189 81 -276 91 -30 4
-68 14 -85 23 -16 9 -61 19 -100 22 l-70 7 87 2 c49 0 116 -6 155 -15z"/>
</g>
</svg>
